<svg width="1279" height="2149" viewBox="0 0 1279 2149" fill="none" xmlns="http://www.w3.org/2000/svg">
<g opacity="0.05">
<path d="M1080.92 -54.9651C858.018 -20.2969 850.933 -11.382 881.273 181.814C903.87 323.609 900.437 352.548 854.107 432.868C801.939 522.965 750.79 552.985 601.525 582.389C426.536 617.03 413.611 635.721 445.084 799.31C459.74 876.673 463.068 915.812 457.295 958.789C449.23 1013.07 446.167 1020.17 405.24 1079.36C370.343 1129.82 356.219 1144.92 332.464 1157.97C274.992 1189.14 226.613 1204.5 151.835 1215.41C3.9551 1237.49 -18.4012 1267.16 5.44216 1409.81C29.9085 1552.9 36.4839 1574.02 70.1286 1597.29C103.773 1620.55 125.858 1619.25 268.369 1591.62C413.419 1562.98 428.159 1536.34 395.487 1369.16C382.177 1299.17 379.664 1261.52 386.152 1213.51C394.549 1152.09 395.411 1150.84 437.969 1094.62C499.007 1014.34 536.316 995.011 682.85 965.56C851.947 931.449 860.563 918.988 831.43 741.361C806.864 591.758 816.892 533.305 882.768 452.686C941.558 380.982 967.421 367.553 1108.06 338.633C1299.53 298.808 1305.37 289.032 1259.11 68.2494C1239.46 -24.5376 1238.02 -26.453 1207.49 -47.5632C1176.96 -68.6734 1174.66 -69.3428 1080.92 -54.9651Z" fill="url(#paint0_linear_5053_3645)"/>
<path d="M640.042 47.2467C631.035 45.6229 572.687 54.0879 510.078 66.0525C333.605 101.509 324.127 115.216 356.707 287.858C369.586 358.468 372.867 400.337 366.949 439.53C359.791 489.837 355.868 498.175 315.801 556.119C276.166 613.44 269.127 619.624 230.333 639.767C206.816 651.135 143.253 669.807 89.0748 680.234C-22.4432 701.664 -43.1825 710.347 -69.1775 743.946C-91.9646 774.236 -91.043 794.214 -66.7293 921.54C-35.0181 1083.45 -18.1958 1095.08 136.677 1069.56C260.987 1049.6 290.588 1038.76 312.991 1006.36C335.824 973.339 335.864 958.632 316.203 841.891C290.583 692.48 304.435 619.173 368.402 551.969C427.869 489.942 480.171 466.246 600.074 446.009L707.33 428.078L736.102 391.795L765.305 354.89L741.899 223.587L717.44 92.476L686.479 71.9888C669.657 60.3567 648.619 49.4936 640.042 47.2467Z" fill="url(#paint1_linear_5053_3645)"/>
<path d="M1119.23 483.603L987.067 508.254L963.28 547.984L939.061 588.336L959.53 694.585C982.498 814.534 978.747 874.565 943.242 948.555C902.519 1032.75 839.255 1070.97 689.99 1100.38C573.825 1123.2 560.079 1128.43 537.245 1161.45C514.843 1193.85 515.579 1224.75 540.37 1348.72C572.173 1505.17 586.934 1514.46 756.992 1485.61C875.218 1465.14 894.472 1457.27 920.752 1419.26C942.101 1387.06 941.955 1383.27 920.803 1255.37C911.43 1201 907.081 1135.37 909.414 1109.35C914.563 1065.95 917.864 1057.18 957.499 999.856C997.566 941.913 1003.98 935.298 1048.52 910.839C1083.53 890.842 1122.38 879.945 1194.67 867.304C1250.09 857.739 1304.55 842.904 1321.31 833.313C1366.96 805.932 1371.1 771.962 1345.3 633.475L1324.15 517.549L1287.87 488.777L1251.59 460.005L1119.23 483.603Z" fill="url(#paint2_linear_5053_3645)"/>
<path d="M119.334 147.666C105.057 147.003 41.4407 156.429 -21.5992 169.017C-133.117 190.447 -137.14 192.27 -155.666 219.061C-178.93 252.706 -177.948 293.906 -151.235 428.417C-122.938 568.628 -94.8079 582.553 84.2041 546.09C249.085 512.748 260.094 495.495 226.076 320.937C198.833 180.533 180.85 150.601 119.334 147.666Z" fill="url(#paint3_linear_5053_3645)"/>
<path d="M1335.56 985.901C1294.88 980.798 1097.57 1018.42 1074.15 1036.3C1033.49 1067.13 1029.87 1095.02 1048.67 1213C1077.75 1393.36 1100.71 1414.76 1241.89 1391.74C1377.17 1369.24 1416.06 1355.61 1439.32 1321.97C1457.85 1295.17 1458.13 1290.77 1438.47 1174.03C1426.99 1108.06 1412.72 1044.78 1406.82 1033.34C1392.77 1007.04 1367.23 989.38 1335.56 985.901Z" fill="url(#paint4_linear_5053_3645)"/>
</g>
<defs>
<linearGradient id="paint0_linear_5053_3645" x1="70.1286" y1="1597.29" x2="1207.49" y2="-47.5632" gradientUnits="userSpaceOnUse">
<stop stop-color="#2B4EFF"/>
<stop offset="1" stop-color="#B3C0FF"/>
</linearGradient>
<linearGradient id="paint1_linear_5053_3645" x1="-10.909" y1="1066.07" x2="680.135" y2="66.6807" gradientUnits="userSpaceOnUse">
<stop stop-color="#2B4EFF"/>
<stop offset="1" stop-color="#B3C0FF"/>
</linearGradient>
<linearGradient id="paint2_linear_5053_3645" x1="595.769" y1="1485.98" x2="1287.86" y2="485.083" gradientUnits="userSpaceOnUse">
<stop stop-color="#2B4EFF"/>
<stop offset="1" stop-color="#B3C0FF"/>
</linearGradient>
<linearGradient id="paint3_linear_5053_3645" x1="-98.356" y1="548.611" x2="168.496" y2="162.69" gradientUnits="userSpaceOnUse">
<stop stop-color="#2B4EFF"/>
<stop offset="1" stop-color="#B3C0FF"/>
</linearGradient>
<linearGradient id="paint4_linear_5053_3645" x1="1110.92" y1="1384.81" x2="1376.77" y2="1000.34" gradientUnits="userSpaceOnUse">
<stop stop-color="#2B4EFF"/>
<stop offset="1" stop-color="#B3C0FF"/>
</linearGradient>
</defs>
</svg>
