<svg width="249" height="34" viewBox="0 0 249 34" fill="none" xmlns="http://www.w3.org/2000/svg">
<path d="M33.5736 28.1275C37.5338 31.2668 43.2742 31.0628 47.0094 27.4442C51.1048 23.4761 51.237 16.8688 47.3025 12.7378C43.2849 8.51931 36.7951 8.5479 32.7695 12.487C34.4877 11.6772 36.4676 11.4973 38.3004 11.9925C39.6744 12.3778 40.971 13.1312 42.0355 14.2493C45.1694 17.5397 45.1081 22.7401 41.8991 25.8647C39.6861 28.0195 36.5533 28.6242 33.7944 27.7122C33.5423 27.629 33.3646 27.9619 33.5736 28.1275Z" fill="white"/>
<path fill-rule="evenodd" clip-rule="evenodd" d="M29.0687 15.1652C29.8855 17.4907 29.5072 19.5623 29.8205 20.3315C30.4813 21.9571 32.6688 21.8558 33.1292 19.5225C33.6869 16.6947 35.8273 14.6567 38.718 14.6567C41.8818 14.6567 44.4226 17.2962 44.3328 20.5014C44.6944 14.3346 38.4118 9.81647 32.7698 12.4869C31.5248 7.78897 28.2297 3.76948 23.8951 1.65405C16.5059 -1.93377 7.44354 0.44292 2.77955 7.54432C-2.31892 15.3079 -0.203435 25.8318 7.48755 30.9683C14.5021 35.6524 23.7378 34.2867 29.1641 28.1008C29.4503 27.7746 29.0704 27.2947 28.6913 27.5022C24.5436 29.7731 19.3611 29.7296 15.2018 26.9372C6.20663 20.8969 10.8817 8.69232 19.9982 8.69232C24.1828 8.69232 27.7437 11.3934 29.0687 15.1652Z" fill="white"/>
<path d="M60.8652 26.9372V10.4662H66.5768V12.4729C66.9091 12.0442 67.3076 11.6656 67.7725 11.3384C68.7874 10.6229 69.8725 10.2653 71.0269 10.2653C71.7976 10.2653 72.5029 10.3808 73.1421 10.6118C73.7878 10.8452 74.3636 11.1964 74.8688 11.665C75.498 12.2487 75.9732 12.9633 76.2945 13.8081C76.3885 13.5938 76.4915 13.389 76.6038 13.1937C76.9743 12.5479 77.4447 12.0048 78.013 11.5663C78.5733 11.1334 79.1704 10.8084 79.8031 10.5919C80.4388 10.3742 81.1076 10.2653 81.8084 10.2653C83.8716 10.2653 85.4881 10.9192 86.6579 12.2266C87.2417 12.8786 87.6783 13.6542 87.9673 14.5518C88.2524 15.4367 88.395 16.4388 88.395 17.5564V27.4006H82.712V18.3024C82.712 17.8046 82.6497 17.3643 82.5261 16.9823C82.4062 16.6125 82.2282 16.294 81.993 16.028C81.7616 15.7661 81.4902 15.569 81.1809 15.4375C80.8696 15.3035 80.5108 15.2372 80.1061 15.2372C79.7111 15.2372 79.3595 15.3126 79.0527 15.4625C78.7458 15.6127 78.4744 15.8409 78.2403 16.1462C77.994 16.4685 77.8098 16.8282 77.6879 17.2259C77.5625 17.6332 77.5002 18.0879 77.5002 18.5892V27.4006H71.7886V18.3024C71.7886 17.8026 71.7273 17.3614 71.6061 16.9806C71.4883 16.611 71.3127 16.292 71.0806 16.0245C70.8523 15.7622 70.5861 15.5657 70.2823 15.4358C69.9727 15.3035 69.6152 15.2372 69.2109 15.2372C68.8142 15.2372 68.4609 15.3126 68.152 15.4628C67.8424 15.6133 67.5676 15.8426 67.3275 16.1497C67.0806 16.466 66.894 16.8264 66.7679 17.2297C66.6405 17.6377 66.5768 18.091 66.5768 18.5892V27.4006H60.8652V26.9372Z" fill="white"/>
<path d="M97.9997 27.4005C97.189 27.4005 96.4183 27.3125 95.6882 27.1367C94.9561 26.9607 94.2638 26.6947 93.6123 26.3403C92.961 25.9858 92.3773 25.5567 91.8628 25.0541C91.3487 24.5514 90.9027 23.9752 90.527 23.3265C90.1495 22.6752 89.8664 21.9644 89.6788 21.195C89.4918 20.4291 89.3984 19.6078 89.3984 18.7324C89.3984 16.9658 89.7793 15.4337 90.5411 14.1365C90.9199 13.4919 91.371 12.9159 91.8931 12.4108C92.4138 11.9075 93.0017 11.4784 93.6567 11.1248C94.9647 10.418 96.4321 10.0643 98.0565 10.0643C99.6809 10.0643 101.148 10.418 102.456 11.1248C103.114 11.4796 103.703 11.9084 104.223 12.409C104.744 12.9103 105.198 13.4861 105.584 14.1348C105.971 14.7861 106.262 15.4975 106.455 16.2677C106.647 17.0327 106.743 17.855 106.743 18.7324C106.743 19.6072 106.645 20.4297 106.45 21.1988C106.253 21.972 105.959 22.6841 105.568 23.3338C105.178 23.9811 104.719 24.5562 104.193 25.0578C103.667 25.559 103.073 25.9877 102.412 26.342C101.752 26.6953 101.053 26.9606 100.316 27.1366C99.5814 27.3124 98.809 27.4005 97.9997 27.4005ZM97.9997 22.2854C98.5066 22.2854 98.9856 22.1569 99.4357 21.9005C99.8793 21.648 100.242 21.2633 100.521 20.7477C100.66 20.4926 100.765 20.1993 100.836 19.8685C100.909 19.5291 100.946 19.1502 100.946 18.7325C100.946 18.1043 100.869 17.5638 100.716 17.1113C100.57 16.6805 100.354 16.3287 100.07 16.057C99.7695 15.77 99.4512 15.5559 99.1172 15.416C98.7856 15.2776 98.4322 15.2084 98.0565 15.2084C97.2903 15.2084 96.6208 15.4896 96.0488 16.0515C95.7705 16.325 95.5597 16.677 95.4185 17.1058C95.2698 17.5588 95.195 18.1006 95.195 18.7325C95.195 19.9649 95.473 20.8661 96.0274 21.4352C96.306 21.721 96.6094 21.9348 96.9373 22.0761C97.2613 22.2153 97.6153 22.2854 97.9997 22.2854Z" fill="white"/>
<path d="M107.744 26.9372V10.4662H113.456V12.4729C113.788 12.0442 114.187 11.6656 114.652 11.3384C115.156 10.9833 115.679 10.7157 116.222 10.5362C116.769 10.3559 117.33 10.2653 117.906 10.2653C118.677 10.2653 119.382 10.3808 120.021 10.6118C120.667 10.8452 121.243 11.1964 121.748 11.665C122.248 12.1282 122.651 12.6778 122.959 13.3125C123.036 13.4734 123.108 13.6393 123.173 13.8103C123.267 13.5953 123.37 13.3897 123.483 13.1937C123.854 12.5479 124.324 12.0048 124.892 11.5663C125.453 11.1334 126.05 10.8084 126.683 10.5919C127.318 10.3742 127.987 10.2653 128.688 10.2653C130.751 10.2653 132.368 10.9192 133.538 12.2266C134.121 12.8789 134.558 13.6542 134.847 14.5518C135.132 15.4367 135.275 16.4388 135.275 17.5564V27.4006H129.591V18.3024C129.591 17.8046 129.529 17.3643 129.405 16.9823C129.285 16.6125 129.108 16.294 128.873 16.028C128.641 15.7664 128.37 15.5691 128.06 15.4375C127.749 15.3035 127.39 15.2372 126.985 15.2372C126.59 15.2372 126.239 15.3126 125.932 15.4625C125.626 15.612 125.355 15.8409 125.119 16.1479C124.873 16.4685 124.689 16.8282 124.567 17.2258C124.442 17.6329 124.379 18.0876 124.379 18.5891V27.4005H118.668V18.3024C118.668 17.8025 118.607 17.3614 118.485 16.9805C118.369 16.613 118.193 16.2944 117.959 16.0263C117.732 15.7622 117.465 15.5657 117.162 15.4357C116.852 15.3035 116.495 15.2372 116.09 15.2372C115.694 15.2372 115.34 15.3126 115.032 15.4625C114.722 15.6129 114.446 15.8426 114.207 16.1497C113.96 16.466 113.773 16.8264 113.647 17.2297C113.52 17.6375 113.456 18.0909 113.456 18.5891V27.4005H107.744V26.9372L107.744 26.9372Z" fill="white"/>
<path fill-rule="evenodd" clip-rule="evenodd" d="M151.89 23.7316C150.895 25.2212 148.643 27.3492 145.316 27.4006H145.305C142.535 27.364 140.35 26.3652 138.824 24.8595C137.68 23.7315 136.907 22.321 136.535 20.8183C136.163 19.3173 136.19 17.7202 136.643 16.2176C137.246 14.2229 138.599 12.3979 140.768 11.187C142.129 10.4267 143.675 10.0776 145.189 10.0776C146.636 10.0776 148.062 10.3987 149.274 10.9857C150.507 11.583 151.521 12.458 152.12 13.5548C152.497 14.2457 152.71 15.0212 152.71 15.8668L152.706 16.0204C152.638 18.3377 151.09 19.7115 149.082 20.5014C147.235 21.228 144.997 21.4511 143.226 21.4653C143.354 21.6356 143.491 21.796 143.635 21.9464C144.467 22.8155 145.55 23.354 146.688 23.5284C147.828 23.7028 149.023 23.5137 150.081 22.9286C150.497 22.6984 150.894 22.4053 151.258 22.0484C151.51 21.8013 151.733 21.6811 151.913 21.6645C152.468 21.6145 152.652 21.9854 152.45 22.6367C152.363 22.9188 152.174 23.3058 151.89 23.7316ZM142.953 15.5537C142.522 15.9907 142.221 16.5914 142.137 17.3462C144.808 17.4708 146.286 17.0356 146.92 16.4476C147.108 16.2731 147.205 16.0933 147.224 15.9243C147.243 15.7593 147.192 15.5907 147.083 15.4342C146.781 14.9972 146.092 14.6664 145.187 14.6664C144.343 14.6664 143.528 14.9705 142.953 15.5537Z" fill="white"/>
<path d="M153.713 26.9372V10.4662H159.425V12.4729C159.757 12.0442 160.156 11.6656 160.62 11.3384C161.124 10.9836 161.653 10.716 162.206 10.5362C162.763 10.3559 163.338 10.2653 163.931 10.2653C164.889 10.2653 165.758 10.4292 166.536 10.7569C167.319 11.0865 168.006 11.5812 168.597 12.2408C169.185 12.8976 169.625 13.6715 169.917 14.5607C170.204 15.4415 170.348 16.4306 170.348 17.5276V27.4006H164.636V18.3024C164.636 17.8025 164.575 17.3614 164.454 16.9805C164.336 16.611 164.161 16.292 163.928 16.0244C163.701 15.7622 163.434 15.5657 163.13 15.4357C162.821 15.3035 162.463 15.2372 162.059 15.2372C161.655 15.2372 161.296 15.3132 160.982 15.4642C160.672 15.6126 160.399 15.8408 160.165 16.1462C159.919 16.4685 159.734 16.8281 159.612 17.2258C159.487 17.6329 159.425 18.0876 159.425 18.5891V27.4006H153.713V26.9372L153.713 26.9372Z" fill="white"/>
<path d="M179.726 27.4004C178.804 27.4004 177.984 27.2704 177.267 27.011C176.534 26.7458 175.911 26.3452 175.398 25.8107C174.886 25.2772 174.503 24.6269 174.249 23.86C174.001 23.1091 173.877 22.2507 173.877 21.2856V15.1223H171.352V10.2653H173.058C173.212 10.2653 173.346 10.2425 173.461 10.1974C173.569 10.155 173.668 10.0889 173.756 9.99961C173.844 9.91224 173.909 9.81192 173.952 9.7014C173.996 9.58559 174.018 9.4494 174.018 9.29424V6.36377H179.588V8.54856C179.588 9.05903 179.412 9.58757 179.059 10.134C179.03 10.1802 179 10.2235 178.969 10.2654H182.737V15.1224H179.588V21.3431C179.588 21.6625 179.682 21.905 179.87 22.0706C179.976 22.1625 180.09 22.2314 180.209 22.275C180.333 22.3199 180.475 22.3426 180.634 22.3426C180.893 22.3426 181.147 22.2686 181.396 22.1209L181.88 21.8331L183.371 26.2856L183.047 26.4764C182.81 26.6165 182.559 26.7443 182.297 26.8587C182.044 26.9707 181.778 27.068 181.5 27.1511C181.223 27.2339 180.936 27.2963 180.639 27.3376C180.339 27.3795 180.034 27.4004 179.726 27.4004Z" fill="white"/>
<path fill-rule="evenodd" clip-rule="evenodd" d="M199.985 23.7316C198.99 25.2213 196.739 27.3492 193.412 27.4006H193.401C190.63 27.364 188.446 26.3652 186.92 24.8595C185.776 23.7315 185.003 22.321 184.631 20.8183C184.259 19.3173 184.285 17.7202 184.739 16.2176C185.342 14.2229 186.695 12.3979 188.863 11.187C190.225 10.4267 191.771 10.0776 193.284 10.0776C194.732 10.0776 196.158 10.3987 197.369 10.9857C198.602 11.583 199.617 12.458 200.215 13.5548C200.593 14.2457 200.806 15.0212 200.806 15.8668L200.802 16.0204C200.734 18.3377 199.185 19.7115 197.177 20.5014C195.33 21.228 193.092 21.4511 191.322 21.4653C191.45 21.6356 191.587 21.796 191.731 21.9464C192.563 22.8155 193.645 23.354 194.784 23.5284C195.923 23.7028 197.119 23.5137 198.176 22.9286C198.593 22.6984 198.989 22.4053 199.354 22.0484C199.606 21.8013 199.829 21.6811 200.008 21.6645C200.564 21.6145 200.748 21.9854 200.546 22.6367C200.459 22.9188 200.27 23.3058 199.985 23.7316ZM191.049 15.5537C190.618 15.9907 190.317 16.5914 190.233 17.3462C192.904 17.4708 194.382 17.0356 195.016 16.4476C195.204 16.2731 195.301 16.0933 195.32 15.9243C195.338 15.7593 195.287 15.5907 195.179 15.4342C194.877 14.9972 194.188 14.6664 193.282 14.6664C192.439 14.6664 191.625 14.9705 191.049 15.5537Z" fill="white"/>
<path d="M208.002 10.7939L211.08 20.8587L214.207 10.4662H220.271C218.289 16.1108 216.306 21.755 214.328 27.4005H207.782C205.788 21.7568 203.799 16.1114 201.809 10.4662H207.901L208.002 10.7939Z" fill="white"/>
</svg>
