<svg width="176" height="27" viewBox="0 0 176 27" fill="none" xmlns="http://www.w3.org/2000/svg">
<path d="M26.794 22.4464C29.9542 24.9515 34.5351 24.7888 37.5158 21.9011C40.7839 18.7346 40.8894 13.4619 37.7497 10.1654C34.5437 6.79898 29.3647 6.82179 26.1523 9.9652C27.5235 9.31899 29.1034 9.17544 30.566 9.57063C31.6625 9.87803 32.6972 10.4793 33.5466 11.3716C36.0475 13.9973 35.9985 18.1472 33.4378 20.6407C31.6718 22.3602 29.1718 22.8428 26.9702 22.115C26.769 22.0486 26.6272 22.3143 26.794 22.4464Z" fill="#FED73E"/>
<path fill-rule="evenodd" clip-rule="evenodd" d="M23.1969 12.102C23.8487 13.9577 23.5469 15.6109 23.7969 16.2247C24.3242 17.522 26.0698 17.4411 26.4372 15.5792C26.8823 13.3226 28.5903 11.6962 30.8971 11.6962C33.4218 11.6962 35.4494 13.8025 35.3777 16.3603C35.6663 11.4392 30.6528 7.8337 26.1504 9.96469C25.1569 6.21575 22.5274 3.00818 19.0684 1.32006C13.1717 -1.54303 5.93997 0.353574 2.21809 6.02051C-1.85051 12.2159 -0.162342 20.614 5.97509 24.7129C11.5727 28.4508 18.9428 27.361 23.2731 22.4247C23.5015 22.1643 23.1983 21.7814 22.8957 21.947C19.5859 23.7592 15.4502 23.7244 12.1311 21.4961C4.95291 16.6759 8.68363 6.93663 15.9586 6.93663C19.298 6.93663 22.1396 9.09206 23.1969 12.102Z" fill="#2B4EFF"/>
<path d="M48.5742 21.4959V8.35201H53.1321V9.95338C53.3973 9.61123 53.7152 9.30916 54.0862 9.04799C54.8961 8.47708 55.7621 8.19165 56.6832 8.19165C57.2983 8.19165 57.8611 8.28385 58.3712 8.46816C58.8864 8.65447 59.3459 8.9347 59.7491 9.30866C60.2512 9.77443 60.6304 10.3447 60.8868 11.0188C60.9619 10.8478 61.044 10.6844 61.1336 10.5286C61.4293 10.0132 61.8047 9.57983 62.2582 9.22988C62.7053 8.88446 63.1818 8.62504 63.6867 8.45229C64.194 8.2786 64.7277 8.19165 65.2869 8.19165C66.9333 8.19165 68.2233 8.71346 69.1569 9.75678C69.6227 10.2771 69.9712 10.8961 70.2017 11.6123C70.4293 12.3185 70.5431 13.1181 70.5431 14.01V21.8657H66.008V14.6053C66.008 14.208 65.9583 13.8567 65.8596 13.5519C65.764 13.2568 65.6219 13.0026 65.4342 12.7903C65.2495 12.5814 65.033 12.4241 64.7862 12.3191C64.5378 12.2122 64.2514 12.1592 63.9285 12.1592C63.6133 12.1592 63.3327 12.2194 63.0878 12.3391C62.843 12.4589 62.6264 12.641 62.4395 12.8847C62.2431 13.1419 62.096 13.4289 61.9987 13.7462C61.8987 14.0713 61.849 14.4341 61.849 14.8342V21.8657H57.2911V14.6053C57.2911 14.2065 57.2422 13.8544 57.1455 13.5505C57.0515 13.2556 56.9113 13.001 56.7261 12.7875C56.5439 12.5782 56.3315 12.4214 56.0891 12.3178C55.842 12.2122 55.5568 12.1593 55.2341 12.1593C54.9175 12.1593 54.6356 12.2195 54.3891 12.3393C54.142 12.4594 53.9227 12.6424 53.7312 12.8875C53.5341 13.1399 53.3852 13.4275 53.2846 13.7493C53.1829 14.0749 53.1321 14.4366 53.1321 14.8342V21.8657H48.5742V21.4959Z" fill="#142141"/>
<path d="M78.2076 21.8657C77.5606 21.8657 76.9456 21.7955 76.363 21.6552C75.7787 21.5147 75.2264 21.3025 74.7064 21.0197C74.1867 20.7367 73.7209 20.3944 73.3103 19.9933C72.9 19.5921 72.5441 19.1323 72.2443 18.6146C71.9431 18.0949 71.7172 17.5277 71.5674 16.9137C71.4182 16.3025 71.3438 15.6471 71.3438 14.9486C71.3438 13.5387 71.6477 12.3162 72.2556 11.281C72.5579 10.7666 72.9179 10.3069 73.3345 9.90383C73.75 9.50222 74.2192 9.15978 74.7419 8.87765C75.7856 8.31358 76.9566 8.03137 78.2529 8.03137C79.5492 8.03137 80.7197 8.31358 81.7637 8.87765C82.2886 9.16078 82.7591 9.50297 83.1738 9.90244C83.5899 10.3025 83.9521 10.7619 84.2601 11.2796C84.569 11.7993 84.8012 12.3671 84.9551 12.9817C85.1079 13.5922 85.1846 14.2484 85.1846 14.9485C85.1846 15.6466 85.1066 16.303 84.9508 16.9167C84.7941 17.5338 84.5594 18.102 84.2469 18.6204C83.9359 19.137 83.5698 19.596 83.1496 19.9962C82.73 20.3962 82.2562 20.7383 81.7282 21.021C81.2022 21.303 80.6444 21.5147 80.0563 21.6551C79.4698 21.7954 78.8534 21.8657 78.2076 21.8657ZM78.2076 17.7839C78.6121 17.7839 78.9944 17.6813 79.3536 17.4767C79.7075 17.2751 79.9966 16.9682 80.2198 16.5567C80.3305 16.3532 80.4143 16.1191 80.4712 15.8551C80.5295 15.5843 80.5589 15.2819 80.5589 14.9486C80.5589 14.4473 80.4976 14.016 80.3751 13.6549C80.2585 13.3111 80.0865 13.0303 79.8595 12.8136C79.6199 12.5845 79.3659 12.4137 79.0994 12.302C78.8347 12.1916 78.5527 12.1364 78.2529 12.1364C77.6414 12.1364 77.1072 12.3607 76.6507 12.8092C76.4287 13.0274 76.2605 13.3083 76.1478 13.6505C76.0291 14.012 75.9695 14.4444 75.9695 14.9486C75.9695 15.9321 76.1912 16.6512 76.6337 17.1053C76.856 17.3334 77.0981 17.5041 77.3598 17.6168C77.6184 17.7279 77.9009 17.7839 78.2076 17.7839Z" fill="#142141"/>
<path d="M85.9847 21.4959V8.35201H90.5428V9.95338C90.8077 9.61123 91.1256 9.30916 91.4966 9.04799C91.8987 8.76465 92.3167 8.55113 92.7498 8.40789C93.1859 8.26401 93.6339 8.19165 94.0937 8.19165C94.7087 8.19165 95.2715 8.28385 95.7816 8.46816C96.2969 8.65447 96.7564 8.9347 97.1595 9.30866C97.5583 9.67831 97.8804 10.1169 98.1255 10.6233C98.1876 10.7518 98.2448 10.8842 98.2967 11.0206C98.3717 10.849 98.4542 10.685 98.544 10.5286C98.84 10.0132 99.2151 9.57983 99.6686 9.22988C100.116 8.88446 100.592 8.62504 101.097 8.45229C101.605 8.2786 102.138 8.19165 102.698 8.19165C104.344 8.19165 105.634 8.71346 106.568 9.75678C107.033 10.2774 107.382 10.8961 107.612 11.6123C107.84 12.3185 107.954 13.1181 107.954 14.01V21.8657H103.418V14.6053C103.418 14.208 103.369 13.8567 103.27 13.5519C103.174 13.2568 103.033 13.0026 102.845 12.7903C102.66 12.5816 102.444 12.4241 102.197 12.3191C101.948 12.2122 101.662 12.1592 101.339 12.1592C101.024 12.1592 100.743 12.2194 100.499 12.3391C100.255 12.4584 100.038 12.641 99.85 12.886C99.6535 13.1419 99.5065 13.4289 99.4092 13.7462C99.3094 14.0711 99.2594 14.4339 99.2594 14.8341V21.8657H94.7016V14.6053C94.7016 14.2064 94.6526 13.8544 94.5559 13.5505C94.4627 13.2571 94.3226 13.0029 94.1363 12.789C93.9546 12.5782 93.7419 12.4214 93.4995 12.3177C93.2527 12.2122 92.9675 12.1592 92.6446 12.1592C92.3282 12.1592 92.0463 12.2194 91.7998 12.3391C91.5527 12.4591 91.3329 12.6424 91.1419 12.8875C90.9445 13.1398 90.7953 13.4275 90.695 13.7493C90.5936 14.0747 90.5425 14.4366 90.5425 14.8341V21.8657H85.9844V21.4959L85.9847 21.4959Z" fill="#142141"/>
<path fill-rule="evenodd" clip-rule="evenodd" d="M121.212 18.9377C120.419 20.1265 118.622 21.8247 115.967 21.8656H115.958C113.747 21.8364 112.004 21.0394 110.786 19.8378C109.874 18.9377 109.257 17.8121 108.96 16.613C108.662 15.4152 108.684 14.1406 109.046 12.9416C109.527 11.3498 110.607 9.89346 112.337 8.92716C113.424 8.32046 114.657 8.04187 115.865 8.04187C117.02 8.04187 118.158 8.29809 119.125 8.76653C120.109 9.24313 120.918 9.94139 121.396 10.8166C121.698 11.368 121.867 11.9869 121.867 12.6617L121.864 12.7842C121.81 14.6334 120.574 15.7298 118.972 16.3601C117.498 16.9399 115.712 17.1179 114.299 17.1293C114.401 17.2651 114.511 17.3931 114.625 17.5132C115.29 18.2068 116.153 18.6364 117.061 18.7757C117.971 18.9148 118.925 18.7639 119.769 18.297C120.101 18.1133 120.418 17.8794 120.708 17.5946C120.91 17.3974 121.088 17.3015 121.231 17.2883C121.674 17.2484 121.821 17.5443 121.66 18.064C121.59 18.2892 121.439 18.598 121.212 18.9377ZM114.081 12.4118C113.737 12.7605 113.497 13.2399 113.43 13.8422C115.562 13.9416 116.741 13.5944 117.247 13.1251C117.397 12.9858 117.474 12.8424 117.49 12.7075C117.504 12.5759 117.463 12.4413 117.377 12.3164C117.136 11.9677 116.586 11.7037 115.864 11.7037C115.19 11.7037 114.54 11.9464 114.081 12.4118Z" fill="#142141"/>
<path d="M122.668 21.4959V8.35201H127.226V9.95338C127.491 9.61123 127.809 9.30916 128.18 9.04799C128.582 8.76487 129.004 8.55135 129.446 8.40789C129.89 8.26401 130.349 8.19165 130.822 8.19165C131.587 8.19165 132.28 8.3225 132.901 8.584C133.526 8.84698 134.074 9.24175 134.545 9.76812C135.015 10.2923 135.366 10.9098 135.599 11.6195C135.828 12.3223 135.943 13.1116 135.943 13.9871V21.8657H131.385V14.6053C131.385 14.2064 131.336 13.8544 131.24 13.5505C131.146 13.2556 131.005 13.001 130.82 12.7875C130.638 12.5782 130.425 12.4214 130.183 12.3177C129.936 12.2122 129.651 12.1593 129.328 12.1593C129.006 12.1593 128.719 12.22 128.469 12.3404C128.221 12.4589 128.004 12.641 127.817 12.8846C127.62 13.1418 127.473 13.4288 127.376 13.7462C127.276 14.0711 127.226 14.4339 127.226 14.8341V21.8657H122.668V21.4959L122.668 21.4959Z" fill="#142141"/>
<path d="M143.425 21.8656C142.689 21.8656 142.035 21.7618 141.462 21.5548C140.878 21.3432 140.38 21.0235 139.971 20.5969C139.563 20.1713 139.257 19.6523 139.054 19.0403C138.856 18.4411 138.757 17.7561 138.757 16.986V12.0676H136.742V8.1917H138.104C138.226 8.1917 138.334 8.17353 138.425 8.13752C138.511 8.1037 138.59 8.05088 138.661 7.97966C138.731 7.90994 138.783 7.82989 138.817 7.74169C138.853 7.64927 138.87 7.54059 138.87 7.41678V5.07825H143.315V6.82172C143.315 7.22907 143.174 7.65085 142.893 8.08692C142.87 8.12379 142.846 8.15833 142.821 8.19173H145.828V12.0676H143.315V17.0318C143.315 17.2867 143.39 17.4802 143.54 17.6123C143.625 17.6857 143.715 17.7407 143.811 17.7754C143.91 17.8113 144.023 17.8294 144.149 17.8294C144.356 17.8294 144.559 17.7704 144.757 17.6525L145.144 17.4228L146.334 20.9759L146.076 21.1282C145.886 21.24 145.686 21.342 145.477 21.4333C145.274 21.5226 145.062 21.6003 144.841 21.6666C144.62 21.7327 144.391 21.7825 144.154 21.8155C143.914 21.8489 143.671 21.8656 143.425 21.8656Z" fill="#142141"/>
<path fill-rule="evenodd" clip-rule="evenodd" d="M159.592 18.9377C158.798 20.1266 157.001 21.8247 154.346 21.8656H154.337C152.126 21.8364 150.383 21.0394 149.165 19.8378C148.252 18.9377 147.636 17.8121 147.338 16.613C147.041 15.4152 147.063 14.1406 147.425 12.9416C147.906 11.3498 148.986 9.89346 150.716 8.92716C151.802 8.32046 153.036 8.04187 154.244 8.04187C155.399 8.04187 156.537 8.29809 157.504 8.76653C158.488 9.24313 159.297 9.94139 159.775 10.8166C160.077 11.368 160.246 11.9869 160.246 12.6617L160.243 12.7842C160.189 14.6334 158.953 15.7298 157.351 16.3601C155.877 16.9399 154.091 17.1179 152.678 17.1293C152.78 17.2651 152.889 17.3931 153.004 17.5132C153.669 18.2068 154.532 18.6364 155.44 18.7757C156.35 18.9148 157.304 18.7639 158.148 18.297C158.48 18.1133 158.796 17.8794 159.088 17.5946C159.289 17.3974 159.466 17.3015 159.61 17.2883C160.053 17.2484 160.2 17.5443 160.039 18.064C159.969 18.2892 159.819 18.598 159.592 18.9377ZM152.46 12.4118C152.116 12.7605 151.876 13.2399 151.809 13.8422C153.94 13.9416 155.12 13.5944 155.626 13.1251C155.776 12.9858 155.853 12.8424 155.869 12.7075C155.883 12.5759 155.842 12.4413 155.756 12.3164C155.515 11.9677 154.965 11.7037 154.243 11.7037C153.569 11.7037 152.92 11.9464 152.46 12.4118Z" fill="#142141"/>
<path d="M165.989 8.61355L168.445 16.6453L170.941 8.35205H175.78C174.198 12.8564 172.616 17.3606 171.037 21.8657H165.813C164.223 17.362 162.635 12.8569 161.047 8.35205H165.909L165.989 8.61355Z" fill="#142141"/>
</svg>
