<svg width="48" height="32" viewBox="0 0 48 32" fill="none" xmlns="http://www.w3.org/2000/svg">
<path d="M31.8107 26.6499C35.5628 29.6243 41.0018 29.4311 44.5408 26.0025C48.421 22.2429 48.5463 15.9825 44.8184 12.0686C41.0119 8.07164 34.8629 8.09872 31.0488 11.8309C32.6768 11.0637 34.5526 10.8932 36.2892 11.3624C37.5911 11.7274 38.8195 12.4413 39.8281 13.5007C42.7974 16.6183 42.7393 21.5455 39.6989 24.506C37.6022 26.5476 34.6339 27.1206 32.0199 26.2564C31.781 26.1776 31.6127 26.4931 31.8107 26.6499Z" fill="#FED73E"/>
<path fill-rule="evenodd" clip-rule="evenodd" d="M27.5419 14.3687C28.3158 16.572 27.9574 18.5348 28.2542 19.2636C28.8804 20.8038 30.9529 20.7078 31.3891 18.4971C31.9176 15.8179 33.9455 13.8869 36.6844 13.8869C39.682 13.8869 42.0894 16.3877 42.0043 19.4246C42.3469 13.5817 36.3943 9.30088 31.0486 11.831C29.869 7.37987 26.747 3.57149 22.6401 1.56718C15.6389 -1.8322 7.05258 0.419657 2.63356 7.14807C-2.19712 14.5038 -0.19275 24.4751 7.09428 29.3417C13.7404 33.7798 22.491 32.4859 27.6323 26.6249C27.9035 26.3158 27.5435 25.8611 27.1843 26.0577C23.2545 28.2094 18.3442 28.1681 14.4034 25.5223C5.88064 19.7993 10.3102 8.23577 18.9478 8.23577C22.9126 8.23577 26.2865 10.7949 27.5419 14.3687Z" fill="#2B4EFF"/>
</svg>
