<svg width="153" height="27" viewBox="0 0 153 27" fill="none" xmlns="http://www.w3.org/2000/svg">
<g clip-path="url(#clip0_2260_1462)">
<path d="M41.1387 21.5454V9.86033H45.1906V11.284C45.4264 10.9798 45.7091 10.7113 46.0389 10.4791C46.7589 9.97152 47.5287 9.71777 48.3477 9.71777C48.8944 9.71777 49.3948 9.79974 49.8482 9.96359C50.3063 10.1292 50.7148 10.3784 51.0732 10.7108C51.5196 11.1249 51.8567 11.6319 52.0847 12.2311C52.1514 12.0791 52.2244 11.9339 52.3041 11.7953C52.567 11.3372 52.9007 10.9519 53.3038 10.6408C53.7013 10.3337 54.125 10.1031 54.5738 9.94949C55.0248 9.79507 55.4992 9.71777 55.9964 9.71777C57.4601 9.71777 58.6069 10.1817 59.4369 11.1092C59.851 11.5717 60.1608 12.122 60.3657 12.7588C60.568 13.3866 60.6692 14.0975 60.6692 14.8903V21.8741H56.6375V15.4196C56.6375 15.0664 56.5933 14.7541 56.5056 14.483C56.4205 14.2207 56.2942 13.9947 56.1274 13.8061C55.9632 13.6203 55.7707 13.4804 55.5513 13.3871C55.3304 13.2921 55.0758 13.245 54.7888 13.245C54.5085 13.245 54.2591 13.2985 54.0414 13.4049C53.8237 13.5114 53.6312 13.6733 53.4651 13.8899C53.2904 14.1185 53.1597 14.3737 53.0732 14.6559C52.9843 14.9448 52.94 15.2674 52.94 15.623V21.8741H48.8881V15.4196C48.8881 15.065 48.8446 14.752 48.7586 14.4818C48.675 14.2197 48.5504 13.9934 48.3858 13.8036C48.2238 13.6175 48.0349 13.4781 47.8195 13.3859C47.5998 13.2921 47.3462 13.245 47.0594 13.245C46.7779 13.245 46.5273 13.2985 46.3081 13.4051C46.0885 13.5118 45.8935 13.6745 45.7232 13.8924C45.5481 14.1168 45.4156 14.3725 45.3262 14.6586C45.2358 14.948 45.1906 15.2696 45.1906 15.623V21.8741H41.1387V21.5454Z" fill="white"/>
<path d="M67.3305 22.0166C66.7554 22.0166 66.2086 21.9542 65.6907 21.8294C65.1713 21.7046 64.6802 21.5159 64.2179 21.2645C63.7559 21.013 63.3418 20.7086 62.9768 20.352C62.6121 19.9954 62.2957 19.5866 62.0291 19.1264C61.7614 18.6644 61.5605 18.1601 61.4274 17.6143C61.2947 17.0709 61.2285 16.4882 61.2285 15.8672C61.2285 14.6139 61.4987 13.527 62.0391 12.6067C62.3079 12.1494 62.6279 11.7407 62.9983 11.3824C63.3677 11.0254 63.7848 10.7209 64.2495 10.4701C65.1774 9.96866 66.2184 9.71777 67.3708 9.71777C68.5233 9.71777 69.5638 9.96866 70.4919 10.4701C70.9586 10.7218 71.3769 11.026 71.7455 11.3812C72.1154 11.7368 72.4374 12.1453 72.7113 12.6055C72.9859 13.0675 73.1924 13.5723 73.3292 14.1186C73.465 14.6614 73.5332 15.2447 73.5332 15.8672C73.5332 16.4878 73.4638 17.0713 73.3253 17.6169C73.186 18.1655 72.9774 18.6707 72.6996 19.1315C72.423 19.5908 72.0976 19.9988 71.724 20.3546C71.351 20.7102 70.9298 21.0143 70.4604 21.2657C69.9928 21.5164 69.4969 21.7046 68.974 21.8294C68.4527 21.9541 67.9047 22.0166 67.3305 22.0166ZM67.3305 18.3878C67.6901 18.3878 68.03 18.2966 68.3493 18.1147C68.664 17.9356 68.921 17.6627 69.1194 17.2969C69.2178 17.1159 69.2924 16.9078 69.3429 16.6732C69.3947 16.4324 69.4209 16.1636 69.4209 15.8672C69.4209 15.4216 69.3664 15.0382 69.2574 14.7171C69.1538 14.4115 69.0009 14.1619 68.7991 13.9692C68.586 13.7656 68.3603 13.6137 68.1233 13.5144C67.888 13.4163 67.6374 13.3672 67.3708 13.3672C66.8272 13.3672 66.3523 13.5666 65.9465 13.9653C65.7491 14.1593 65.5995 14.409 65.4994 14.7132C65.3938 15.0346 65.3408 15.419 65.3408 15.8672C65.3408 16.7416 65.538 17.3809 65.9313 17.7846C66.129 17.9874 66.3442 18.1391 66.5768 18.2393C66.8067 18.3381 67.0579 18.3878 67.3305 18.3878Z" fill="white"/>
<path d="M74.1721 21.5454V9.86033H78.2243V11.284C78.4598 10.9798 78.7425 10.7113 79.0723 10.4791C79.4298 10.2272 79.8014 10.0374 80.1864 9.91001C80.5741 9.7821 80.9724 9.71777 81.3811 9.71777C81.9279 9.71777 82.4282 9.79974 82.8817 9.96359C83.3398 10.1292 83.7483 10.3784 84.1067 10.7108C84.4612 11.0394 84.7475 11.4293 84.9654 11.8796C85.0207 11.9937 85.0715 12.1115 85.1177 12.2327C85.1844 12.0802 85.2576 11.9343 85.3375 11.7953C85.6007 11.3372 85.9342 10.9519 86.3373 10.6408C86.7348 10.3337 87.1584 10.1031 87.6075 9.94949C88.0585 9.79507 88.5327 9.71777 89.0301 9.71777C90.4935 9.71777 91.6406 10.1817 92.4705 11.1092C92.8847 11.572 93.1944 12.122 93.3994 12.7588C93.6017 13.3866 93.7029 14.0975 93.7029 14.8903V21.8741H89.6709V15.4196C89.6709 15.0664 89.627 14.7541 89.539 14.483C89.454 14.2207 89.3279 13.9947 89.1611 13.8061C88.9969 13.6205 88.8044 13.4805 88.5847 13.3871C88.3639 13.2921 88.1095 13.245 87.8222 13.245C87.542 13.245 87.2928 13.2985 87.0751 13.4049C86.8582 13.5109 86.6659 13.6733 86.4985 13.8911C86.3238 14.1185 86.1931 14.3737 86.1066 14.6558C86.018 14.9446 85.9735 15.2672 85.9735 15.623V21.8741H81.9215V15.4196C81.9215 15.065 81.878 14.752 81.792 14.4818C81.7092 14.221 81.5846 13.995 81.419 13.8048C81.2575 13.6174 81.0684 13.4781 80.8529 13.3859C80.6335 13.2921 80.3799 13.245 80.0928 13.245C79.8116 13.245 79.561 13.2985 79.3418 13.4049C79.1222 13.5116 78.9267 13.6745 78.7569 13.8924C78.5815 14.1167 78.4488 14.3725 78.3597 14.6586C78.2695 14.9479 78.2241 15.2696 78.2241 15.623V21.8741H74.1719V21.5454L74.1721 21.5454Z" fill="white"/>
<path d="M107.02 21.5454V9.86033H111.072V11.284C111.307 10.9798 111.59 10.7113 111.92 10.4791C112.277 10.2274 112.652 10.0376 113.045 9.91001C113.44 9.7821 113.848 9.71777 114.269 9.71777C114.948 9.71777 115.564 9.8341 116.117 10.0666C116.672 10.3004 117.16 10.6513 117.579 11.1193C117.996 11.5853 118.308 12.1342 118.515 12.7651C118.719 13.3899 118.821 14.0916 118.821 14.8699V21.8741H114.769V15.4196C114.769 15.065 114.726 14.752 114.64 14.4818C114.556 14.2197 114.432 13.9933 114.267 13.8035C114.105 13.6174 113.916 13.4781 113.701 13.3859C113.481 13.2921 113.227 13.245 112.94 13.245C112.654 13.245 112.399 13.299 112.177 13.4061C111.956 13.5114 111.763 13.6733 111.597 13.8899C111.422 14.1185 111.291 14.3737 111.205 14.6558C111.116 14.9446 111.072 15.2672 111.072 15.623V21.8741H107.02V21.5454L107.02 21.5454Z" fill="white"/>
<path d="M125.322 22.0166C124.668 22.0166 124.086 21.9244 123.577 21.7404C123.058 21.5522 122.615 21.268 122.251 20.8888C121.888 20.5104 121.617 20.049 121.437 19.5049C121.26 18.9722 121.172 18.3633 121.172 17.6786V13.3061H119.381V9.86042H120.592C120.7 9.86042 120.796 9.84426 120.877 9.81225C120.954 9.78218 121.024 9.73522 121.086 9.67191C121.149 9.60993 121.195 9.53876 121.225 9.46035C121.257 9.37819 121.273 9.28158 121.273 9.1715V7.09253H125.224V8.64249C125.224 9.00463 125.099 9.3796 124.849 9.76726C124.828 9.80004 124.807 9.83075 124.785 9.86044H127.458V13.3062H125.224V17.7193C125.224 17.946 125.291 18.118 125.424 18.2354C125.499 18.3006 125.58 18.3495 125.665 18.3805C125.753 18.4123 125.853 18.4285 125.966 18.4285C126.15 18.4285 126.33 18.376 126.507 18.2711L126.85 18.0669L127.908 21.2257L127.678 21.3611C127.51 21.4605 127.332 21.5512 127.146 21.6323C126.966 21.7117 126.777 21.7808 126.581 21.8398C126.384 21.8985 126.18 21.9427 125.97 21.9721C125.757 22.0018 125.541 22.0166 125.322 22.0166Z" fill="white"/>
<path d="M143.524 10.0928L145.708 17.2331L147.926 9.86035H152.229C150.823 13.8648 149.416 17.869 148.012 21.8741H143.368C141.954 17.8702 140.543 13.8652 139.131 9.86035H143.453L143.524 10.0928Z" fill="white"/>
<path fill-rule="evenodd" clip-rule="evenodd" d="M105.339 19.4116C104.634 20.4684 103.036 21.9781 100.676 22.0145H100.668C98.7029 21.9886 97.1532 21.28 96.0702 20.2118C95.2591 19.4116 94.7106 18.4109 94.4465 17.3449C94.1824 16.28 94.2014 15.147 94.5234 14.081C94.951 12.6659 95.9109 11.3712 97.4493 10.5121C98.4151 9.97277 99.5118 9.7251 100.586 9.7251C101.612 9.7251 102.624 9.95288 103.484 10.3693C104.359 10.793 105.078 11.4138 105.503 12.1919C105.771 12.682 105.921 13.2322 105.921 13.8321L105.919 13.9411C105.87 15.585 104.772 16.5597 103.348 17.1201C102.037 17.6355 100.45 17.7938 99.193 17.8039C99.2841 17.9247 99.3814 18.0385 99.4835 18.1452C100.074 18.7618 100.842 19.1437 101.649 19.2675C102.458 19.3912 103.306 19.2571 104.056 18.842C104.351 18.6787 104.633 18.4708 104.891 18.2176C105.07 18.0422 105.229 17.957 105.356 17.9452C105.75 17.9097 105.881 18.1728 105.737 18.6349C105.675 18.8351 105.541 19.1096 105.339 19.4116ZM98.9998 13.61C98.6939 13.92 98.4803 14.3462 98.421 14.8816C100.316 14.97 101.364 14.6613 101.814 14.2441C101.947 14.1203 102.016 13.9928 102.03 13.8729C102.043 13.7558 102.007 13.6362 101.93 13.5252C101.716 13.2152 101.226 12.9805 100.584 12.9805C99.9856 12.9805 99.4078 13.1962 98.9998 13.61Z" fill="white"/>
<path fill-rule="evenodd" clip-rule="evenodd" d="M138.935 19.4116C138.229 20.4685 136.632 21.9781 134.272 22.0145H134.264C132.298 21.9886 130.749 21.28 129.666 20.2118C128.855 19.4116 128.306 18.4109 128.042 17.3449C127.778 16.28 127.797 15.147 128.119 14.081C128.547 12.6659 129.506 11.3712 131.045 10.5121C132.011 9.97277 133.107 9.7251 134.181 9.7251C135.208 9.7251 136.22 9.95288 137.079 10.3693C137.954 10.793 138.674 11.4138 139.098 12.1919C139.367 12.682 139.517 13.2322 139.517 13.8321L139.514 13.9411C139.466 15.585 138.368 16.5597 136.943 17.1201C135.633 17.6355 134.045 17.7938 132.789 17.8039C132.88 17.9247 132.977 18.0385 133.079 18.1452C133.67 18.7618 134.437 19.1437 135.245 19.2675C136.054 19.3912 136.902 19.2571 137.652 18.842C137.947 18.6787 138.228 18.4708 138.487 18.2176C138.666 18.0422 138.824 17.957 138.952 17.9452C139.345 17.9097 139.476 18.1728 139.333 18.6349C139.271 18.8351 139.137 19.1096 138.935 19.4116ZM132.596 13.61C132.29 13.92 132.076 14.3462 132.017 14.8816C133.911 14.97 134.96 14.6613 135.41 14.2441C135.543 14.1203 135.612 13.9928 135.626 13.8729C135.639 13.7558 135.602 13.6362 135.525 13.5252C135.311 13.2152 134.822 12.9805 134.18 12.9805C133.581 12.9805 133.004 13.1962 132.596 13.61Z" fill="white"/>
<path d="M23.8224 22.533C26.6318 24.7601 30.7043 24.6154 33.3542 22.0482C36.2596 19.2332 36.3534 14.5457 33.5621 11.6151C30.7119 8.62232 26.1078 8.64261 23.252 11.4371C24.4709 10.8626 25.8755 10.735 27.1757 11.0863C28.1505 11.3596 29.0704 11.8942 29.8255 12.6874C32.0488 15.0217 32.0053 18.711 29.7288 20.9277C28.1588 22.4564 25.9363 22.8854 23.979 22.2384C23.8002 22.1794 23.6741 22.4155 23.8224 22.533Z" fill="#FED73E"/>
<path fill-rule="evenodd" clip-rule="evenodd" d="M20.6223 13.3371C21.2017 14.9868 20.9334 16.4565 21.1556 17.0022C21.6244 18.1554 23.1763 18.0835 23.5029 16.4283C23.8986 14.4222 25.417 12.9763 27.4678 12.9763C29.7123 12.9763 31.5149 14.8488 31.4511 17.1227C31.7076 12.7478 27.2506 9.54249 23.248 11.437C22.3647 8.10412 20.0271 5.25256 16.952 3.75181C11.7098 1.20649 5.28069 2.89259 1.9719 7.93055C-1.64512 13.4383 -0.144323 20.9043 5.31191 24.5483C10.2883 27.8713 16.8404 26.9025 20.69 22.514C20.893 22.2825 20.6235 21.9421 20.3545 22.0893C17.412 23.7004 13.7354 23.6695 10.7847 21.6885C4.40318 17.4033 7.71982 8.74498 14.1873 8.74498C17.1561 8.74498 19.6823 10.6612 20.6223 13.3371Z" fill="#2B4EFF"/>
</g>
<defs>
<clipPath id="clip0_2260_1462">
<rect width="152.452" height="26.386" fill="white"/>
</clipPath>
</defs>
</svg>
