<svg width="322" height="148" viewBox="0 0 322 148" fill="none" xmlns="http://www.w3.org/2000/svg">
<path d="M243.998 85.7171C245.35 86.4358 247.028 85.923 247.747 84.5715C248.466 83.22 247.953 81.5418 246.601 80.823C245.25 80.1042 243.572 80.6171 242.853 81.9685C242.134 83.32 242.647 84.9983 243.998 85.7171Z" fill="#FF6584"/>
<path d="M241.987 116.67C243.338 117.389 245.016 116.876 245.735 115.525C246.454 114.173 245.941 112.495 244.59 111.776C243.238 111.057 241.56 111.57 240.841 112.922C240.122 114.273 240.635 115.951 241.987 116.67Z" fill="#2B4EFF"/>
<path d="M233.659 43.7857C236.136 45.3102 238.216 47.4 239.729 49.8837C241.242 52.3675 242.145 55.1745 242.364 58.0746C242.422 58.8941 242.565 59.8363 241.895 60.4526C241.648 60.6936 241.326 60.8435 240.983 60.878C240.639 60.9124 240.294 60.8293 240.004 60.6422C239.667 60.3601 239.433 59.9746 239.337 59.5456C239.241 59.1166 239.29 58.668 239.475 58.2695C239.661 57.8709 239.972 57.5447 240.362 57.3413C240.752 57.1379 241.198 57.0687 241.63 57.1445C243.811 57.3316 244.979 59.4563 245.931 61.1618C248.096 65.0467 250.7 68.9031 254.566 71.2704C258.144 73.4616 262.881 74.1209 266.644 72.0081C267.301 71.6406 266.685 70.6446 266.029 71.0127C262.297 73.1097 257.566 72.057 254.242 69.6583C252.284 68.1846 250.594 66.3866 249.243 64.3424C248.529 63.3065 247.875 62.2314 247.255 61.1374C246.695 60.0416 246.038 58.9977 245.293 58.018C244.007 56.4666 241.798 55.3592 239.822 56.3055C237.976 57.1874 237.52 60.0457 239.097 61.4085C239.449 61.695 239.867 61.8896 240.313 61.9749C240.759 62.0602 241.219 62.0335 241.652 61.8973C242.086 61.7611 242.478 61.5196 242.795 61.1944C243.112 60.8692 243.343 60.4705 243.468 60.034C243.744 59.0836 243.545 57.9043 243.419 56.9401C243.042 54.0372 242.019 51.2558 240.425 48.8007C238.831 46.3455 236.706 44.2791 234.208 42.7537C233.561 42.3677 233.014 43.4014 233.659 43.7857Z" fill="#CCCCCC"/>
<path d="M313.356 39.3398C311.387 38.1275 309.732 36.4656 308.529 34.4905C307.325 32.5153 306.607 30.283 306.433 27.9766C306.387 27.3245 306.273 26.5745 306.805 26.0853C307.002 25.8936 307.258 25.7743 307.531 25.7469C307.804 25.7195 308.079 25.7855 308.309 25.9343C308.576 26.1593 308.761 26.4657 308.836 26.8064C308.912 27.1471 308.873 27.5031 308.726 27.8194C308.578 28.1358 308.331 28.3949 308.022 28.557C307.713 28.719 307.36 28.7748 307.016 28.7159C305.282 28.5662 304.353 26.8776 303.595 25.5208C301.873 22.431 299.802 19.3638 296.726 17.48C293.882 15.7378 290.113 15.2124 287.12 16.8929C286.596 17.187 287.087 17.9786 287.608 17.6846C290.576 16.0178 294.34 16.8518 296.984 18.7615C298.54 19.9337 299.885 21.3639 300.96 22.99C301.527 23.8136 302.047 24.669 302.54 25.5405C302.986 26.412 303.508 27.2422 304.1 28.0214C305.124 29.2557 306.879 30.1352 308.451 29.3828C308.801 29.1926 309.102 28.9231 309.329 28.5959C309.557 28.2687 309.704 27.8928 309.76 27.4983C309.816 27.1038 309.779 26.7016 309.652 26.324C309.525 25.9464 309.311 25.6038 309.028 25.3236C308.748 25.0957 308.415 24.9409 308.061 24.8729C307.706 24.805 307.34 24.8262 306.995 24.9345C306.651 25.0428 306.338 25.2349 306.086 25.4935C305.834 25.7521 305.65 26.0693 305.551 26.4165C305.404 27.2315 305.417 28.0673 305.59 28.8772C305.89 31.1865 306.704 33.3991 307.973 35.3521C309.241 37.305 310.932 38.9485 312.919 40.1615C313.434 40.4688 313.87 39.646 313.356 39.3398Z" fill="#CCCCCC"/>
<path d="M301.39 66.3601L298.943 65.0586L294.667 73.0993L297.114 74.4008L301.39 66.3601Z" fill="#CCCCCC"/>
<path d="M264.799 39.7016L267.406 38.9043L264.787 30.3397L262.18 31.137L264.799 39.7016Z" fill="#B3B3B3"/>
<path d="M218.164 125.747L218.961 128.354L227.526 125.734L226.728 123.127L218.164 125.747Z" fill="#FF6584"/>
<path d="M149.904 126.733C174.912 126.733 195.184 106.46 195.184 81.4532C195.184 56.4461 174.912 36.1738 149.904 36.1738C124.897 36.1738 104.625 56.4461 104.625 81.4532C104.625 106.46 124.897 126.733 149.904 126.733Z" fill="#2B4EFF"/>
<path d="M145.416 98.7278C144.397 98.7295 143.406 98.3999 142.591 97.7887L142.542 97.7508L131.901 89.6107C130.916 88.844 130.274 87.719 130.115 86.4809C129.956 85.2428 130.293 83.9921 131.052 83.0015C131.812 82.0108 132.932 81.3606 134.169 81.1927C135.406 81.0247 136.659 81.3526 137.655 82.1048L144.548 87.3906L160.835 66.1417C161.213 65.6488 161.683 65.235 162.221 64.9241C162.758 64.6132 163.352 64.4113 163.967 64.3299C164.583 64.2484 165.208 64.2891 165.808 64.4496C166.408 64.61 166.97 64.8871 167.462 65.265L167.362 65.4053L167.465 65.265C168.46 66.0285 169.11 67.1552 169.275 68.398C169.439 69.6407 169.104 70.8979 168.342 71.8937L149.184 96.876C148.741 97.4515 148.171 97.9173 147.519 98.2371C146.867 98.5569 146.149 98.7221 145.423 98.7201L145.416 98.7278Z" fill="white"/>
<path d="M119.65 47.7088C119.214 47.7073 118.796 47.5333 118.487 47.2247C118.179 46.916 118.005 46.4978 118.004 46.0615C118.002 45.9319 118.017 45.8026 118.047 45.6767L126.571 8.12723C126.636 7.84434 126.774 7.5834 126.971 7.37053C127.168 7.15765 127.418 7.00033 127.695 6.9143C127.972 6.82827 128.267 6.81657 128.55 6.88036C128.833 6.94414 129.094 7.08119 129.308 7.27776L157.57 33.4476C157.783 33.6447 157.94 33.8942 158.026 34.1712C158.112 34.4481 158.124 34.7428 158.06 35.0258C157.996 35.3087 157.859 35.5699 157.663 35.7834C157.467 35.9968 157.218 36.1549 156.941 36.2419L120.147 47.6347C119.986 47.6839 119.819 47.7088 119.65 47.7088Z" fill="#3F3D56"/>
<path d="M142.77 20.2578L125.018 16.725L125.297 15.4922L140.994 18.6124L142.77 20.2578Z" fill="white"/>
<path d="M156.743 33.2078L122.801 26.454L123.08 25.2148L154.964 31.5556L156.743 33.2078Z" fill="white"/>
<path d="M144.608 39.6627L142.06 40.4503L120.604 36.1805L120.883 34.9414L144.608 39.6627Z" fill="white"/>
<path d="M54.0615 102.632C56.0729 102.13 57.2969 100.093 56.7954 98.0817C56.2939 96.0703 54.2568 94.8463 52.2455 95.3478C50.2341 95.8493 49.0101 97.8864 49.5116 99.8978C50.013 101.909 52.0501 103.133 54.0615 102.632Z" fill="#2B4EFF"/>
<path d="M20.6816 13.6848C22.1182 13.3266 22.9925 11.8716 22.6343 10.435C22.2761 8.99835 20.8211 8.1241 19.3845 8.48229C17.9478 8.84049 17.0736 10.2955 17.4318 11.7321C17.79 13.1687 19.245 14.043 20.6816 13.6848Z" fill="#FF6584"/>
<path d="M36.121 83.8918C37.5577 83.5336 38.4319 82.0786 38.0737 80.642C37.7155 79.2054 36.2605 78.3311 34.8239 78.6893C33.3873 79.0475 32.513 80.5025 32.8712 81.9391C33.2294 83.3758 34.6844 84.25 36.121 83.8918Z" fill="#2B4EFF"/>
<path d="M49.8769 125.777C51.3135 125.418 52.1878 123.963 51.8296 122.527C51.4714 121.09 50.0164 120.216 48.5798 120.574C47.1431 120.932 46.2689 122.387 46.6271 123.824C46.9853 125.261 48.4403 126.135 49.8769 125.777Z" fill="#E6E6E6"/>
<path d="M3.89838 38.8762C5.33501 38.518 6.20926 37.063 5.85107 35.6264C5.49288 34.1898 4.03788 33.3155 2.60125 33.6737C1.16462 34.0319 0.290372 35.4869 0.648565 36.9235C1.00676 38.3601 2.46175 39.2344 3.89838 38.8762Z" fill="#CCCCCC"/>
<path d="M74.8364 86.8606C72.7183 86.1406 70.8009 84.9289 69.2415 83.3249C67.6821 81.7208 66.525 79.77 65.8651 77.6324C65.6812 77.0257 65.4135 76.3445 65.8101 75.7687C65.9543 75.5457 66.1699 75.3783 66.4216 75.2937C66.6734 75.2092 66.9463 75.2125 67.1959 75.3032C67.4957 75.4581 67.7362 75.7073 67.8803 76.0124C68.0244 76.3175 68.0642 76.6616 67.9935 76.9915C67.9228 77.3214 67.7455 77.619 67.489 77.8382C67.2324 78.0574 66.9109 78.1862 66.574 78.2046C64.9066 78.4371 63.6659 77.0427 62.6618 75.9267C60.3716 73.3853 57.7613 70.9353 54.4557 69.8198C51.3962 68.7875 47.7305 69.1031 45.2696 71.3311C44.8392 71.721 45.472 72.3604 45.9019 71.9726C48.3423 69.7628 52.0725 69.7424 54.9748 70.9735C56.6949 71.7442 58.2705 72.8037 59.6332 74.1061C60.3456 74.7607 61.0198 75.4556 61.6719 76.1705C62.2799 76.8966 62.9511 77.5673 63.6776 78.1748C64.9079 79.1185 66.7521 79.5713 68.0742 78.5238C68.3634 78.2692 68.589 77.9504 68.733 77.593C68.8769 77.2356 68.9353 76.8494 68.9034 76.4654C68.8714 76.0814 68.7501 75.7102 68.5491 75.3815C68.348 75.0528 68.0729 74.7757 67.7456 74.5723C67.4323 74.4174 67.0855 74.3426 66.7362 74.3547C66.387 74.3668 66.0462 74.4654 65.7443 74.6416C65.4425 74.8178 65.1891 75.0661 65.0069 75.3643C64.8246 75.6625 64.7192 76.0012 64.7001 76.3502C64.7366 77.1503 64.9288 77.9357 65.266 78.6623C66.0453 80.7758 67.2889 82.6876 68.9051 84.2568C70.5213 85.826 72.469 87.0125 74.6047 87.7291C75.1559 87.9084 75.39 87.0393 74.8399 86.8607L74.8364 86.8606Z" fill="#CCCCCC"/>
<path d="M10.0655 68.6311L12.3242 69.9883L16.7833 62.5671L14.5246 61.2099L10.0655 68.6311Z" fill="#B3B3B3"/>
<path d="M9.73341 131.222C11.7448 130.72 12.9688 128.683 12.4673 126.672C11.9658 124.66 9.92872 123.436 7.91733 123.938C5.90594 124.439 4.68193 126.476 5.18343 128.488C5.68492 130.499 7.72202 131.723 9.73341 131.222Z" fill="#2B4EFF"/>
</svg>
